<svg xmlns="http://www.w3.org/2000/svg" viewBox="0 0 192 192"><defs><style>.cls-1{fill:#f89824;}.cls-2{fill:#2d71b9;}.cls-3{fill:#998342;}.cls-4{fill:#6dceee;}.cls-5{fill:#68913e;}</style></defs><title>gigit_studio</title><g id="icon"><path class="cls-1" d="M95.9985,20.8977c-13.6769,0-29.016,9.0674-29.016,24.18a21.5452,21.5452,0,0,0,5.1381,13.6013c1.4357,1.6622,3.0982,3.2491,4.6095,4.9873,4.229,5.0626,7.9414,10.83,9.6941,17.227l-9.8434,1.0852c-2.3162-6.2356-7.41-12.1592-11.4874-16.65A29.0725,29.0725,0,0,1,57.31,45.0778c0-20.5533,19.571-33.8521,38.6881-33.8521s38.6882,13.2988,38.6882,33.8521a29.0725,29.0725,0,0,1-7.783,20.2507c-4.0773,4.4909-9.1712,10.4145-11.4874,16.65l-9.8434-1.0852c1.7527-6.3972,5.4651-12.1644,9.6941-17.227,1.5113-1.7382,3.1738-3.3251,4.6095-4.9873a21.5452,21.5452,0,0,0,5.1381-13.6013C125.0146,29.9651,109.6755,20.8977,95.9985,20.8977Z"/><path class="cls-1" d="M110.5066,47.4958a2.4865,2.4865,0,0,0,2.418-2.418c0-8.3876-9.8989-12.09-16.9261-12.09a2.418,2.418,0,0,0,0,4.836c4.005,0,12.09,2.04,12.09,7.254A2.4865,2.4865,0,0,0,110.5066,47.4958Z"/><path class="cls-2" d="M159.9485,45.7428a37.8728,37.8728,0,0,1,6.4465,2.7756,37.66,37.66,0,0,1,17.952,44.081c-.1945.6361-.4067,1.27-.6334,1.8933s-.4684,1.237-.7247,1.8416a37.5932,37.5932,0,0,1-19.5212,19.7576q-.5948.2616-1.1987.5029-.752-.9642-1.5584-1.8853a44.3473,44.3473,0,0,0-7.1438-6.5355q-.0735-.0539-.1474-.1077A27.0576,27.0576,0,0,0,170.355,97.1154a26.769,26.769,0,0,0,2.0748-3.4835q.4574-.92.85-1.8872c.2613-.6449.5009-1.3076.7155-1.9816a27.2047,27.2047,0,0,0,.9173-3.8051A26.7947,26.7947,0,0,0,173.5937,72.24a27.1459,27.1459,0,0,0-4.5979-7.9434,26.7605,26.7605,0,0,0-7.11-6.0077A26.99,26.99,0,0,0,140.5949,55.75q-1.2006.3584-2.3645.8266.1674-.4976.3194-1.0005a34.6057,34.6057,0,0,0,1.1317-5.1547q.1866-1.3175.2781-2.6608.0459-.6714.0684-1.3487.0114-.3387.0168-.6787.0028-.17.0041-.34.0007-.0852.001-.1705l0-.0853v-.1493q0-.0876-.0008-.1751a37.636,37.636,0,0,1,19.8993.93Z"/><path class="cls-3" d="M99.3456,167.1774q.6844-1.0128,1.311-2.0641a44.3467,44.3467,0,0,0,4.0082-8.8135q.0288-.087.0572-.1742a27.1,27.1,0,0,0,12.0414,11.3177,26.7949,26.7949,0,0,0,9.6766,2.5308q.8631.0594,1.7424.0642c.5862.003,1.17-.0128,1.7474-.0466a26.9244,26.9244,0,0,0,25.0593-22.8973q.1534-1.0289.2286-2.0838.0372-.5273.0542-1.0607.0086-.2667.0118-.5349.0016-.1341.002-.2686c0-.09,0-.1557,0-.2258s-.001-.1394-.002-.2091q-.0033-.2495-.0112-.4979a26.9753,26.9753,0,0,0-7.2381-17.5361l.0539,0a45.3678,45.3678,0,0,0,6.8089-.5368,43.2854,43.2854,0,0,0,5.3037-1.1731,37.6493,37.6493,0,0,1,5.1911,13.2838q.3,1.6338.4574,3.3069.0668.7139.1064,1.4334.0337.6133.0477,1.2306.0063.2779.0085.5564.0009.1232.0011.2463c0,.0609,0,.1411,0,.2186s-.0009.1548-.0017.2322q-.0026.2321-.0077.4635-.01.4629-.032.9233-.0431.9207-.13,1.8307-.1736,1.8194-.5173,3.5883a37.6677,37.6677,0,0,1-30.7079,29.96,37.874,37.874,0,0,1-5.4915.5154c-.812.017-1.63.008-2.4377-.0266s-1.61-.0947-2.4055-.18a37.63,37.63,0,0,1-24.9355-13.3735Z"/><path class="cls-4" d="M38.56,108.0582l-.11.0807a45.2452,45.2452,0,0,0-5.4352,4.6983,43.22,43.22,0,0,0-3.2923,3.7559,37.6514,37.6514,0,0,1-12.0079-7.6957q-1.2033-1.1453-2.3138-2.4066-.4734-.5382-.9286-1.097-.3877-.4764-.7618-.9674-.1686-.2214-.3344-.4459-.0608-.0822-.1211-.165l-.049-.0672-.0374-.0515-.0387-.0536-.0772-.1073q-.0769-.1072-.153-.2151-.1521-.2154-.3009-.4324-.2976-.4339-.5816-.8737-.568-.8793-1.0819-1.78a37.6423,37.6423,0,0,1,8.2217-47.2587q.9557-.818,1.9764-1.5808c.5335-.3984,1.0792-.7841,1.63-1.1523s1.1084-.72,1.6723-1.0561a37.5959,37.5959,0,0,1,27.4485-4.3878l.064.0143-.0007.1366,0,.0738v.1632l.0005.12q.0006.0914.0015.1827.0106,1.0522.0766,2.091.033.5193.08,1.0349.1138,1.2473.3106,2.4722.0985.6123.218,1.2184a34.0222,34.0222,0,0,0,1.1315,4.2667,27.11,27.11,0,0,0-15.0405-1.4942,26.7933,26.7933,0,0,0-9.3247,3.6439q-.7338.46-1.4486.9736t-1.3872,1.0661A26.9248,26.9248,0,0,0,19.7587,94.014q.48.9216,1.0391,1.8184.28.4482.5792.8893.15.2205.3046.4393.0774.1094.1561.2182c.0525.0726.0914.1258.1329.1823s.0828.1121.1244.1679q.1494.2.3018.3962A26.9746,26.9746,0,0,0,38.56,108.0582Z"/><path class="cls-5" d="M43.9668,124.6624a27.0986,27.0986,0,0,0-7.04,14.929,26.7942,26.7942,0,0,0,.5843,10.02q.2115.8422.48,1.683c.1794.56.3759,1.1125.5877,1.6525a26.9243,26.9243,0,0,0,29.5219,16.73q1.023-.172,2.0466-.4261.5117-.1272,1.0227-.2756.2556-.0741.5109-.1537.1278-.04.2553-.0808c.0851-.0275.1476-.0479.214-.07s.132-.0441.1979-.0664q.2361-.08.47-.1645A26.9737,26.9737,0,0,0,87.26,156.1369a45.2731,45.2731,0,0,0,2.9149,6.91,43.21,43.21,0,0,0,2.4715,4.1322,37.65,37.65,0,0,1-11.03,9.0423q-1.4612.7907-3.004,1.457-.6581.284-1.33.544-.5725.2216-1.1548.4254-.4023.1409-.809.273c-.1146.0372-.2916.0937-.4376.1393s-.2921.09-.4383.1337q-.4386.1311-.8783.2509-.8791.24-1.7615.4356-1.7643.3916-3.533.61a37.6665,37.6665,0,0,1-38.1285-20.1917,37.8847,37.8847,0,0,1-2.129-5.0179c-.2271-.664-.4367-1.337-.626-2.0093s-.3593-1.3463-.51-2.0213a37.6079,37.6079,0,0,1,4.7753-28.0564q.0712-.1147.1432-.2291,1.1576.333,2.3333.601a44.34,44.34,0,0,0,9.6374,1.0964Q43.866,124.6623,43.9668,124.6624Z"/><path class="cls-1" d="M114.209,87.2415a7.17,7.17,0,0,1,1.6626,11.0329,7.1814,7.1814,0,0,1-1.5113,10.9564,7.2177,7.2177,0,0,1-7.254,10.806,12.1317,12.1317,0,0,1-22.2155,0,7.2177,7.2177,0,0,1-7.254-10.806,7.1817,7.1817,0,0,1-1.5113-10.9564,7.17,7.17,0,0,1,1.6626-11.0329l9.5964-1.058h17.2281Z"/></g></svg>